<?xml version="1.0" standalone="no"?><!DOCTYPE svg PUBLIC "-//W3C//DTD SVG 1.1//EN" "http://www.w3.org/Graphics/SVG/1.1/DTD/svg11.dtd"><svg t="1650265254157" class="icon" viewBox="0 0 1024 1024" version="1.1" xmlns="http://www.w3.org/2000/svg" p-id="5339" xmlns:xlink="http://www.w3.org/1999/xlink" width="200" height="200"><defs><style type="text/css"></style></defs><path d="M463.79008 428.31872h98.61632l-48.6656-141.27616z" p-id="5340" fill="#8a8a8a"></path><path d="M793.2928 29.23008H235.008c-115.65056 0-209.3568 93.1584-209.3568 208.19968v424.85248c0 114.9696 93.70624 208.13312 209.3568 208.13312h131.80416l127.17056 124.4416h0.06656c4.29568 6.6816 11.52 11.38176 20.10624 11.38176a24.32512 24.32512 0 0 0 22.48704-15.05792l119.13216-120.76032h137.5232c115.65568 0 209.36192-93.16352 209.36192-208.13312v-424.8576c-0.00512-115.03616-93.71136-208.19968-209.36704-208.19968z m-109.92128 643.13856a35.11296 35.11296 0 0 1-11.38176 1.90464c-14.44864 0-28.01152-9.06752-32.98304-23.51104l-52.54656-152.65792H439.1168l-54.10816 152.92928c-6.54336 18.12992-26.4448 27.66848-44.5696 21.26336a34.9952 34.9952 0 0 1-21.26336-44.5696l162.05824-458.24512a35.00032 35.00032 0 0 1 32.91648-23.23968h0.13312a34.87232 34.87232 0 0 1 32.84992 23.51104l157.83936 458.24c6.272 18.27328-3.40992 38.10816-21.60128 44.37504z" p-id="5341" fill="#8a8a8a"></path></svg>