<?xml version="1.0" standalone="no"?><!DOCTYPE svg PUBLIC "-//W3C//DTD SVG 1.1//EN" "http://www.w3.org/Graphics/SVG/1.1/DTD/svg11.dtd"><svg t="1647676213884" class="icon" viewBox="0 0 1024 1024" version="1.1" xmlns="http://www.w3.org/2000/svg" p-id="3994" width="200" height="200" xmlns:xlink="http://www.w3.org/1999/xlink"><defs><style type="text/css"></style></defs><path d="M955.733333 136.533333H68.266667c-18.773333 0-34.133333 15.36-34.133334 34.133334v682.666666c0 18.773333 15.36 34.133333 34.133334 34.133334h887.466666c18.773333 0 34.133333-15.36 34.133334-34.133334V170.666667c0-18.773333-15.36-34.133333-34.133334-34.133334z m-34.133333 682.666667H102.4v-173.738667c8.533333 0.682667 17.408-1.706667 24.917333-7.850666l177.834667-147.797334 262.144 262.144c6.826667 6.826667 15.36 9.898667 24.234667 9.898667s17.408-3.413333 24.234666-9.898667a33.9968 33.9968 0 0 0 0-48.128l-15.36-15.36 102.741334-102.741333 218.453333 213.674667V819.2z m0-115.370667l-194.901333-190.464c-13.312-12.970667-34.816-12.970667-48.128 0.341334l-126.634667 126.634666-220.501333-220.501333a34.133333 34.133333 0 0 0-46.08-2.048L102.4 569.344V204.8h819.2v499.029333zM750.933333 443.733333c37.546667 0 68.266667-30.72 68.266667-68.266666s-30.72-68.266667-68.266667-68.266667-68.266667 30.72-68.266666 68.266667 30.72 68.266667 68.266666 68.266666z" p-id="3995" fill="#0d6efd"></path></svg>