<?xml version="1.0" standalone="no"?><!DOCTYPE svg PUBLIC "-//W3C//DTD SVG 1.1//EN"
        " ">
<svg class="icon" viewBox="0 0 1026 1024" version="1.1" xmlns="http://www.w3.org/2000/svg"
     width="200.390625" height="200">
    <defs>
        <style type="text/css"></style>
    </defs>
    <path d="M935 809C994.6 724 1026 624.4 1026 520 1026 242 800 16 522 16S18 242 18 520s226 504 504 504c79.8 0 158.8-19 229.4-55.2l209.8 54.2c2.6 0.6 5.4 1 8 1 9 0 17.8-3.8 24-10.6 8-9 10.4-21.6 6.2-32.8l-64.4-171.6z m-563.6-238c-18.2 10.6-40.8 10.6-59 0-18.2-10.6-29.4-30-29.4-51s11.2-40.6 29.4-51c18.2-10.6 40.8-10.6 59 0 18.2 10.6 29.4 30 29.4 51 0.2 21-11.2 40.6-29.4 51z m180 0c-18.2 10.6-40.8 10.6-59 0-18.2-10.6-29.4-30-29.4-51s11.2-40.6 29.4-51c18.2-10.6 40.8-10.6 59 0 18.2 10.6 29.4 30 29.4 51 0.2 21-11 40.6-29.4 51z m180.2 0c-18.2 10.6-40.8 10.6-59 0-18.2-10.6-29.4-30-29.4-51s11.2-40.6 29.4-51c18.2-10.6 40.8-10.6 59 0 18.2 10.6 29.4 30 29.4 51s-11.2 40.6-29.4 51z"
          fill="#ffffff"></path>
</svg>