<?xml version="1.0" standalone="no"?><!DOCTYPE svg PUBLIC "-//W3C//DTD SVG 1.1//EN" "http://www.w3.org/Graphics/SVG/1.1/DTD/svg11.dtd"><svg t="1649557881213" class="icon" viewBox="0 0 1033 1024" version="1.1" xmlns="http://www.w3.org/2000/svg" p-id="9393" xmlns:xlink="http://www.w3.org/1999/xlink" width="201.7578125" height="200"><defs><style type="text/css"></style></defs><path d="M447.455148 249.243402m-249.243402 0a249.243402 249.243402 0 1 0 498.486804 0 249.243402 249.243402 0 1 0-498.486804 0Z" p-id="9394" fill="#515151"></path><path d="M579.58418 819.800587a249.30346 249.30346 0 0 1 167.743812-235.55003q-11.711437-7.927742-24.02346-15.254897c-76.094311-43.902874-172.368328 48.707566-277.110616 49.548387-104.742287-0.840821-201.016305-93.451261-277.110616-49.548387C66.082714 628.453724 0.018198 726.049032 0.018198 828.809384a189.785337 189.785337 0 0 0 14.954604 76.514722c53.452199 66.78522 227.08176 115.733021 433.20305 115.73302a1156.609501 1156.609501 0 0 0 211.166217-18.558123A248.462639 248.462639 0 0 1 579.58418 819.800587z" p-id="9395" fill="#515151"></path><path d="M828.827582 615.601173a204.199413 204.199413 0 1 0 204.199413 204.199414 204.199413 204.199413 0 0 0-204.199413-204.199414z m18.017595 222.217009V966.944282h-36.03519v-129.1261h-129.1261v-36.035191H810.809987V672.656891h36.03519v129.1261h129.1261v36.035191z" p-id="9396" fill="#515151"></path></svg>